<?xml version="1.0" encoding="UTF-8" standalone="no"?>
<!DOCTYPE svg PUBLIC "-//W3C//DTD SVG 1.1//EN"
 "http://www.w3.org/Graphics/SVG/1.1/DTD/svg11.dtd">
<!-- Generated by graphviz version 2.43.0 (0)
 -->
<!-- Title: %3 Pages: 1 -->
<svg width="720pt" height="70pt"
 viewBox="0.00 0.00 720.00 69.66" xmlns="http://www.w3.org/2000/svg" xmlns:xlink="http://www.w3.org/1999/xlink">
<g id="graph0" class="graph" transform="scale(0.36 0.36) rotate(0) translate(4 188)">
<title>%3</title>
<polygon fill="white" stroke="transparent" points="-4,4 -4,-188 1980.5,-188 1980.5,4 -4,4"/>
<!-- Main.py -->
<g id="node1" class="node">
<title>Main.py</title>
<ellipse fill="lightblue" stroke="black" cx="882.5" cy="-166" rx="48.19" ry="18"/>
<text text-anchor="middle" x="882.5" y="-162.3" font-family="Times,serif" font-size="14.00">Main.py</text>
</g>
<!-- Funciones.py -->
<g id="node2" class="node">
<title>Funciones.py</title>
<polygon fill="lightyellow" stroke="black" points="650.5,-112 406.5,-112 406.5,-74 650.5,-74 650.5,-112"/>
<text text-anchor="middle" x="528.5" y="-96.8" font-family="Times,serif" font-size="14.00">Módulo de Funciones</text>
<text text-anchor="middle" x="528.5" y="-81.8" font-family="Times,serif" font-size="14.00">(lógica del menú, entrada, flujo)</text>
</g>
<!-- Main.py&#45;&gt;Funciones.py -->
<g id="edge1" class="edge">
<title>Main.py&#45;&gt;Funciones.py</title>
<path fill="none" stroke="black" d="M841.2,-156.72C789.48,-146.34 699.14,-128.22 628.82,-114.12"/>
<polygon fill="black" stroke="black" points="629.09,-110.6 618.59,-112.07 627.71,-117.47 629.09,-110.6"/>
</g>
<!-- Clases_06.py -->
<g id="node3" class="node">
<title>Clases_06.py</title>
<polygon fill="lightgreen" stroke="black" points="1404.5,-112 1258.5,-112 1258.5,-74 1404.5,-74 1404.5,-112"/>
<text text-anchor="middle" x="1331.5" y="-96.8" font-family="Times,serif" font-size="14.00">Módulo de Clases</text>
<text text-anchor="middle" x="1331.5" y="-81.8" font-family="Times,serif" font-size="14.00">(juegos y jugador)</text>
</g>
<!-- Main.py&#45;&gt;Clases_06.py -->
<g id="edge2" class="edge">
<title>Main.py&#45;&gt;Clases_06.py</title>
<path fill="none" stroke="black" d="M925.96,-158.13C1000.25,-146.38 1152.85,-122.25 1248.22,-107.17"/>
<polygon fill="black" stroke="black" points="1248.79,-110.62 1258.12,-105.6 1247.7,-103.71 1248.79,-110.62"/>
</g>
<!-- Menú principal -->
<g id="node4" class="node">
<title>Menú principal</title>
<polygon fill="none" stroke="black" points="153,-38 0,-38 0,0 153,0 153,-38"/>
<text text-anchor="middle" x="76.5" y="-22.8" font-family="Times,serif" font-size="14.00">Menú principal</text>
<text text-anchor="middle" x="76.5" y="-7.8" font-family="Times,serif" font-size="14.00">(muestra opciones)</text>
</g>
<!-- Funciones.py&#45;&gt;Menú principal -->
<g id="edge4" class="edge">
<title>Funciones.py&#45;&gt;Menú principal</title>
<path fill="none" stroke="black" d="M406.2,-75.82C337.58,-66.29 250.2,-53.42 163.38,-38.1"/>
<polygon fill="black" stroke="black" points="163.81,-34.63 153.35,-36.32 162.58,-41.52 163.81,-34.63"/>
</g>
<!-- Menú juegos -->
<g id="node5" class="node">
<title>Menú juegos</title>
<polygon fill="none" stroke="black" points="329.5,-38 171.5,-38 171.5,0 329.5,0 329.5,-38"/>
<text text-anchor="middle" x="250.5" y="-22.8" font-family="Times,serif" font-size="14.00">Menú juegos</text>
<text text-anchor="middle" x="250.5" y="-7.8" font-family="Times,serif" font-size="14.00">(selección de juego)</text>
</g>
<!-- Funciones.py&#45;&gt;Menú juegos -->
<g id="edge5" class="edge">
<title>Funciones.py&#45;&gt;Menú juegos</title>
<path fill="none" stroke="black" d="M458.71,-73.92C419.63,-63.8 370.75,-51.14 330.18,-40.64"/>
<polygon fill="black" stroke="black" points="330.88,-37.2 320.32,-38.08 329.12,-43.98 330.88,-37.2"/>
</g>
<!-- Registro jugador -->
<g id="node6" class="node">
<title>Registro jugador</title>
<polygon fill="none" stroke="black" points="519.5,-38 347.5,-38 347.5,0 519.5,0 519.5,-38"/>
<text text-anchor="middle" x="433.5" y="-22.8" font-family="Times,serif" font-size="14.00">Registro jugador</text>
<text text-anchor="middle" x="433.5" y="-7.8" font-family="Times,serif" font-size="14.00">(nombre, edad, saldo)</text>
</g>
<!-- Funciones.py&#45;&gt;Registro jugador -->
<g id="edge3" class="edge">
<title>Funciones.py&#45;&gt;Registro jugador</title>
<path fill="none" stroke="black" d="M504.53,-73.83C492.71,-64.88 478.3,-53.96 465.56,-44.3"/>
<polygon fill="black" stroke="black" points="467.55,-41.41 457.46,-38.16 463.32,-46.99 467.55,-41.41"/>
</g>
<!-- Comprobar saldo -->
<g id="node7" class="node">
<title>Comprobar saldo</title>
<polygon fill="none" stroke="black" points="707.5,-38 537.5,-38 537.5,0 707.5,0 707.5,-38"/>
<text text-anchor="middle" x="622.5" y="-22.8" font-family="Times,serif" font-size="14.00">Comprobar saldo</text>
<text text-anchor="middle" x="622.5" y="-7.8" font-family="Times,serif" font-size="14.00">(evita saldo negativo)</text>
</g>
<!-- Funciones.py&#45;&gt;Comprobar saldo -->
<g id="edge7" class="edge">
<title>Funciones.py&#45;&gt;Comprobar saldo</title>
<path fill="none" stroke="black" d="M552.22,-73.83C563.91,-64.88 578.17,-53.96 590.78,-44.3"/>
<polygon fill="black" stroke="black" points="592.98,-47.02 598.79,-38.16 588.72,-41.47 592.98,-47.02"/>
</g>
<!-- Instrucciones -->
<g id="node8" class="node">
<title>Instrucciones</title>
<polygon fill="none" stroke="black" points="893,-38 726,-38 726,0 893,0 893,-38"/>
<text text-anchor="middle" x="809.5" y="-22.8" font-family="Times,serif" font-size="14.00">Instrucciones</text>
<text text-anchor="middle" x="809.5" y="-7.8" font-family="Times,serif" font-size="14.00">(tabla rich por juego)</text>
</g>
<!-- Funciones.py&#45;&gt;Instrucciones -->
<g id="edge6" class="edge">
<title>Funciones.py&#45;&gt;Instrucciones</title>
<path fill="none" stroke="black" d="M599.05,-73.92C638.63,-63.78 688.16,-51.09 729.22,-40.57"/>
<polygon fill="black" stroke="black" points="730.11,-43.96 738.93,-38.08 728.37,-37.17 730.11,-43.96"/>
</g>
<!-- Jugador -->
<g id="node9" class="node">
<title>Jugador</title>
<polygon fill="none" stroke="black" points="1164,-38 911,-38 911,0 1164,0 1164,-38"/>
<text text-anchor="middle" x="1037.5" y="-22.8" font-family="Times,serif" font-size="14.00">Clase Jugador</text>
<text text-anchor="middle" x="1037.5" y="-7.8" font-family="Times,serif" font-size="14.00">(saldo, ingresar, retirar, mostrar)</text>
</g>
<!-- Clases_06.py&#45;&gt;Jugador -->
<g id="edge8" class="edge">
<title>Clases_06.py&#45;&gt;Jugador</title>
<path fill="none" stroke="black" d="M1258.45,-74.11C1216.8,-63.91 1164.43,-51.09 1121.14,-40.48"/>
<polygon fill="black" stroke="black" points="1121.74,-37.03 1111.2,-38.05 1120.08,-43.83 1121.74,-37.03"/>
</g>
<!-- Ruleta -->
<g id="node10" class="node">
<title>Ruleta</title>
<polygon fill="none" stroke="black" points="1480.5,-38 1182.5,-38 1182.5,0 1480.5,0 1480.5,-38"/>
<text text-anchor="middle" x="1331.5" y="-22.8" font-family="Times,serif" font-size="14.00">Juego Ruleta</text>
<text text-anchor="middle" x="1331.5" y="-7.8" font-family="Times,serif" font-size="14.00">(elección de números, apuesta, premio)</text>
</g>
<!-- Clases_06.py&#45;&gt;Ruleta -->
<g id="edge9" class="edge">
<title>Clases_06.py&#45;&gt;Ruleta</title>
<path fill="none" stroke="black" d="M1331.5,-73.83C1331.5,-66.13 1331.5,-56.97 1331.5,-48.42"/>
<polygon fill="black" stroke="black" points="1335,-48.41 1331.5,-38.41 1328,-48.41 1335,-48.41"/>
</g>
<!-- Carta Alta -->
<g id="node11" class="node">
<title>Carta Alta</title>
<polygon fill="none" stroke="black" points="1764,-38 1499,-38 1499,0 1764,0 1764,-38"/>
<text text-anchor="middle" x="1631.5" y="-22.8" font-family="Times,serif" font-size="14.00">Juego Carta Alta</text>
<text text-anchor="middle" x="1631.5" y="-7.8" font-family="Times,serif" font-size="14.00">(comparar carta jugador y crupier)</text>
</g>
<!-- Clases_06.py&#45;&gt;Carta Alta -->
<g id="edge10" class="edge">
<title>Clases_06.py&#45;&gt;Carta Alta</title>
<path fill="none" stroke="black" d="M1404.5,-74.48C1447.31,-64.2 1501.61,-51.17 1546.36,-40.43"/>
<polygon fill="black" stroke="black" points="1547.43,-43.78 1556.34,-38.04 1545.8,-36.97 1547.43,-43.78"/>
</g>
<!-- Blackjack -->
<g id="node12" class="node">
<title>Blackjack</title>
<polygon fill="none" stroke="black" points="1976.5,-38 1782.5,-38 1782.5,0 1976.5,0 1976.5,-38"/>
<text text-anchor="middle" x="1879.5" y="-22.8" font-family="Times,serif" font-size="14.00">Juego Blackjack</text>
<text text-anchor="middle" x="1879.5" y="-7.8" font-family="Times,serif" font-size="14.00">(turno jugador y crupier)</text>
</g>
<!-- Clases_06.py&#45;&gt;Blackjack -->
<g id="edge11" class="edge">
<title>Clases_06.py&#45;&gt;Blackjack</title>
<path fill="none" stroke="black" d="M1404.77,-84.11C1490.41,-74.64 1636.67,-57.74 1772.32,-38.14"/>
<polygon fill="black" stroke="black" points="1773.09,-41.56 1782.48,-36.66 1772.08,-34.64 1773.09,-41.56"/>
</g>
</g>
</svg>
